# xmcd CD database file
#
# Track frame offsets:
#	150
#	12399
#	25348
#	39149
#	53399
#	74197
#	86176
#	104022
#	145647
#	162283
#	179048
#	193497
#	215770
#	234965
#	250459
#	264618
#	283229
#	302017
#	314992
#
# Disc length: 4410 seconds
#
# Revision: 2
# Processed by: cddbd v1.5.2PL0 Copyright (c) Steve Scherf et al.
# Submitted via: CDex 1.51
#
DISCID=2c113813
DTITLE=PUSSYCAT - The Complete Collection CD-3
DYEAR=2004
DGENRE=Pop
TTITLE0=Tell Alain
TTITLE1=Come Back My Dream
TTITLE2=For You
TTITLE3=Daddu
TTITLE4=Mississippi(German Version)
TTITLE5=Heute Heute Heute
TTITLE6=Pasadena(German Version)
TTITLE7=Doin' La Bamba(12'' Version)
TTITLE8=We'll Put The World Together Again
TTITLE9=Hungry Nights
TTITLE10=Every Beat Of My Heart
TTITLE11=Out Of Reach
TTITLE12=Sweet Music To My Soul
TTITLE13=Incredible You
TTITLE14=Good Year For The Roses
TTITLE15=It Turned Out To Be You
TTITLE16=Love In A Heatwave
TTITLE17=Oh, How I Miss You Tonight
TTITLE18=Heart Half Empty
EXTD=YEAR: 2004
EXTT0=
EXTT1=
EXTT2=
EXTT3=
EXTT4=
EXTT5=
EXTT6=
EXTT7=
EXTT8=
EXTT9=
EXTT10=
EXTT11=
EXTT12=
EXTT13=
EXTT14=
EXTT15=
EXTT16=
EXTT17=
EXTT18=
PLAYORDER=
